<?xml version="1.0" encoding="utf-8"?>
<!-- Generator: Adobe Illustrator 16.0.0, SVG Export Plug-In . SVG Version: 6.00 Build 0)  -->
<!DOCTYPE svg PUBLIC "-//W3C//DTD SVG 1.1//EN" "http://www.w3.org/Graphics/SVG/1.1/DTD/svg11.dtd">
<svg version="1.1" id="Layer_1" xmlns="http://www.w3.org/2000/svg" xmlns:xlink="http://www.w3.org/1999/xlink" x="0px" y="0px"
	 width="360px" height="360px" viewBox="0 0 360 360" enable-background="new 0 0 360 360" xml:space="preserve">
<polygon points="265.624,189.667 265.624,170.704 248.268,170.704 248.268,144.769 243.467,144.769 243.467,170.704 
	238.818,170.704 238.818,144.769 234.018,144.769 234.018,170.704 224.13,170.704 224.13,203.955 204.733,203.955 204.733,144.344 
	165.938,144.344 165.938,157.252 140.083,175.424 140.083,236.632 117.196,236.632 117.196,288.802 140.083,288.802 
	140.083,289.077 171.796,289.077 171.796,288.802 185.336,288.802 204.733,288.802 224.13,288.802 224.13,289.077 265.624,289.077 
	265.624,288.802 278,288.802 278,189.667 "/>
</svg>
