<?xml version="1.0" encoding="utf-8"?>
<!-- Generator: Adobe Illustrator 16.0.0, SVG Export Plug-In . SVG Version: 6.00 Build 0)  -->
<!DOCTYPE svg PUBLIC "-//W3C//DTD SVG 1.1//EN" "http://www.w3.org/Graphics/SVG/1.1/DTD/svg11.dtd">
<svg version="1.1" id="Layer_1" xmlns="http://www.w3.org/2000/svg" xmlns:xlink="http://www.w3.org/1999/xlink" x="0px" y="0px"
	 width="360px" height="360px" viewBox="0 0 360 360" enable-background="new 0 0 360 360" xml:space="preserve">
<g>
	<path fill="none" stroke="#EC008C" stroke-width="2.2535" stroke-miterlimit="10" d="M133.797,158.781"/>
	<g>
		<polygon fill="none" stroke="#000000" stroke-width="11.2676" stroke-miterlimit="10" points="164.959,311.322 172.748,124.613 
			207.801,124.613 217.543,311.322 		"/>
		
			<line fill="none" stroke="#000000" stroke-width="6.7606" stroke-miterlimit="10" x1="215.595" y1="245.486" x2="166.748" y2="245.486"/>
		
			<line fill="none" stroke="#000000" stroke-width="6.1077" stroke-miterlimit="10" x1="211.649" y1="187.468" x2="171.775" y2="187.468"/>
		
			<line fill="none" stroke="#000000" stroke-width="5.5197" stroke-miterlimit="10" x1="201.531" y1="89.028" x2="177.616" y2="89.028"/>
		
			<line fill="none" stroke="#000000" stroke-width="4.8789" stroke-miterlimit="10" x1="164.959" y1="311.322" x2="211.968" y2="249.605"/>
		
			<line fill="none" stroke="#000000" stroke-width="4.8789" stroke-miterlimit="10" x1="168.533" y1="249.605" x2="217.543" y2="311.322"/>
		
			<line fill="none" stroke="#000000" stroke-width="4.507" stroke-miterlimit="10" x1="177.616" y1="124.613" x2="179.565" y2="89.028"/>
		
			<line fill="none" stroke="#000000" stroke-width="4.507" stroke-miterlimit="10" x1="201.807" y1="124.613" x2="199.857" y2="89.028"/>
		
			<line fill="none" stroke="#000000" stroke-width="3.538" stroke-miterlimit="10" x1="168.533" y1="240.924" x2="208.782" y2="189.637"/>
		
			<line fill="none" stroke="#000000" stroke-width="3.538" stroke-miterlimit="10" x1="171.775" y1="189.637" x2="211.968" y2="243.096"/>
		
			<line fill="none" stroke="#000000" stroke-width="3.538" stroke-miterlimit="10" x1="171.044" y1="184.427" x2="205.857" y2="127.49"/>
		
			<line fill="none" stroke="#000000" stroke-width="3.538" stroke-miterlimit="10" x1="173.758" y1="127.49" x2="210.077" y2="184.427"/>
		
			<line fill="none" stroke="#000000" stroke-width="3.538" stroke-miterlimit="10" x1="178.592" y1="124.613" x2="199.011" y2="91.224"/>
		
			<line fill="none" stroke="#000000" stroke-width="3.7966" stroke-miterlimit="10" x1="181.701" y1="91.224" x2="201.633" y2="121.402"/>
		<g>
			<polyline fill="none" stroke="#000000" stroke-width="3.3982" stroke-miterlimit="10" points="178.372,91.224 149.625,107.305 
				230.773,107.305 200.829,91.224 			"/>
			<path fill="none" stroke="#000000" stroke-width="3.3982" stroke-miterlimit="10" d="M232.145,106.759c0,9.56,0,11.903,0,11.903"
				/>
			<path fill="none" stroke="#000000" stroke-width="3.3982" stroke-miterlimit="10" d="M149.63,106.759c0,9.56,0,11.903,0,11.903"
				/>
		</g>
		<g>
			<polyline fill="none" stroke="#000000" stroke-width="4.4655" stroke-miterlimit="10" points="170.77,172.5 121.134,188.581 
				261.258,188.581 209.547,172.5 			"/>
			<path fill="none" stroke="#000000" stroke-width="4.4655" stroke-miterlimit="10" d="M263.629,188.038c0,9.56,0,11.902,0,11.902"
				/>
			<path fill="none" stroke="#000000" stroke-width="4.4655" stroke-miterlimit="10" d="M121.139,188.038c0,9.56,0,11.902,0,11.902"
				/>
		</g>
	</g>
</g>
</svg>
